<svg xmlns="http://www.w3.org/2000/svg" xmlns:xlink="http://www.w3.org/1999/xlink" viewBox="0,0,256,256" width="50px" height="50px" fill-rule="nonzero"><g fill="#ffffff" fill-rule="nonzero" stroke="none" stroke-width="1" stroke-linecap="butt" stroke-linejoin="miter" stroke-miterlimit="10" stroke-dasharray="" stroke-dashoffset="0" font-family="none" font-weight="none" font-size="none" text-anchor="none" style="mix-blend-mode: normal"><g transform="scale(5.12,5.12)"><path d="M18.60938,3.96094c-0.92578,-0.02734 -1.57422,0.47656 -2.25,1.89844c-0.39062,0.95703 -0.48437,2.00781 -0.48437,3.15625c0.28906,1.24219 0.57813,2.48438 0.96484,3.72656c0.5625,1.71875 1.78516,5.28906 2.71875,8.02734c0.05078,0.02344 0.10156,0.04297 0.17969,0.07813c0.37109,0.23047 0.51953,0.35547 0.68359,0.5c0.19141,0.16797 0.40625,0.38672 0.625,0.625c0.19531,-0.43359 0.49219,-0.84375 0.91797,-1.20312c1.15625,-0.76562 2.51172,-0.28516 3.76953,-0.28516c0,0 0.60547,0.05859 1.35156,0.12891c-1.06641,-3.23437 -2.96875,-9.21875 -4.19531,-11.64453c-0.67578,-1.33984 -1.35156,-2.58203 -2.21875,-3.72656c-0.38672,-0.57422 -0.87109,-1.05078 -1.64453,-1.24219c-0.14453,-0.02344 -0.28516,-0.03906 -0.41797,-0.03906zM36.73047,5.09375c-0.59766,0.05078 -1.25391,0.40234 -1.92969,1.02344c-0.19141,0.19141 -0.48437,0.38281 -0.58203,0.66797c-1.0625,1.24219 -1.83594,2.77344 -2.51172,4.20703c-1.16016,2.19922 -2.85156,6.95312 -3.625,9.34375c-0.03516,0.12891 -0.08594,0.24219 -0.12891,0.36719c0.64844,0.0625 1.29297,0.12891 1.64453,0.16406c1.07813,0.11719 3.82031,0.46484 5.71875,0.73828c0.78125,-2.23047 2.07813,-5.89453 2.69531,-7.71484c0.48047,-1.625 0.96484,-3.25 1.16016,-4.875c0.09375,-1.14844 -0.10156,-2.19922 -0.875,-3.15625c-0.43359,-0.57031 -0.96875,-0.81641 -1.56641,-0.76562zM17.62891,21.75391c-0.10547,-0.00391 -0.21484,0.00391 -0.33203,0.02734c-1.02734,0.19141 -1.89453,0.80469 -2.58203,1.57031c-0.04687,0.05078 -0.08203,0.10547 -0.125,0.15625c-0.24609,0.39453 -0.39062,0.80078 -0.36719,1.16016v0.09375c0,0.73828 0.29297,1.05078 0.48438,1.53125c0.67578,1.33203 2.03125,3.05469 3.51172,4.6875c0.07031,0.07422 0.14063,0.14844 0.20703,0.22266c0.41016,0.44531 0.82813,0.89063 1.24219,1.32813c0.70703,0.69531 1.51563,1.85156 2.65625,1.35547c0.71484,-0.31641 1.42188,-1.11719 1.67578,-1.85547c0.05469,-0.14453 0.08203,-0.28906 0.08203,-0.43359c0,-1.59766 -3.47266,-7.03516 -4.73047,-8.66016c-0.45312,-0.58594 -0.97656,-1.16406 -1.72266,-1.18359zM25.63672,22.01563c-0.67578,0 -1.25781,0 -1.93359,0.1875c-0.48437,0.19141 -0.87109,0.48047 -0.87109,1.05078c-0.03906,0.47266 0.02734,0.90234 0.15625,1.30469c0.19531,0.31641 0.38672,0.65234 0.57422,1c0.15625,0.16406 0.32031,0.32813 0.52734,0.47266c0.67578,0.47656 1.54688,0.76172 2.41406,0.95313c1.9375,0.38281 3.96484,0.38281 5.99609,0.38281c0.48047,0 0.87109,0 1.35547,0.09766c0.48047,0.09375 0.57813,0.47656 0.67578,0.95313c0.09375,0.38281 -0.19531,0.57422 -0.48437,0.67188c-0.57812,0.28516 -1.06641,0.47656 -1.64453,0.66406c-2.32031,0.86328 -4.05859,2.39063 -5.31641,4.49609c-0.87109,1.52734 -1.16016,3.15234 -0.48047,4.875c0.19141,0.37891 0.28906,0.76172 0.38281,1.23828c0.09766,0.38672 0.19531,0.86328 0.09766,1.33984c-0.96484,-0.19141 -1.54687,-0.66797 -2.02734,-1.43359c-0.38672,-0.76562 -0.58203,-1.625 -0.67969,-2.48437c-0.09375,-0.47656 -0.09766,-0.95703 -0.09766,-1.43359c0.06641,-0.59375 0.15625,-1.08203 0.26563,-1.50391c-0.27734,0.28906 -0.59375,0.56641 -0.98828,0.79688c-0.49219,0.32422 -1.23437,0.35938 -1.86328,0.30469c0.05078,0.10938 0.10156,0.21875 0.14453,0.32422c0,0.19141 0.09766,0.28516 0.09766,0.38281c0.28906,1.14844 -0.19531,2.19922 -1.16016,2.86719c-0.77344,0.57422 -1.73828,0.57031 -2.60937,0.38281c-1.54687,-0.38281 -2.95703,-1.41016 -3.92187,-2.65234c-0.48437,-0.66797 -0.96875,-1.43359 -1.0625,-2.19531c-0.29297,-0.76562 -0.29297,-1.14844 0.19141,-1.625c0.09375,0.1875 0.28906,0.28516 0.38672,0.47266c0.48047,0.57422 0.86719,1.15234 1.35156,1.72266c0.57813,0.67188 1.41016,1.41016 2.18359,1.69531c0.67578,0.28516 1.25781,0.28516 1.93359,0c0.57813,-0.28516 0.67578,-0.66797 0.58203,-1.24219c-0.09766,-0.19141 -0.19531,-0.38281 -0.29297,-0.57031c-0.67578,-1.33984 -1.54687,-2.58203 -2.60937,-3.63672c-0.57812,-0.57031 -3.16016,-3.5 -4.77344,-2.71875c-1.12109,0.71484 -1.85156,1.81641 -2.0625,3.27734c-0.19141,1.625 0,3.05859 0.48438,4.58594c0.96875,3.05859 4.25391,6.40234 7.53906,7.74219c2.51172,1.05078 5.125,1.43359 7.82813,1.14453c1.9375,-0.09375 3.86719,-0.66406 5.60547,-1.52734c3.48047,-1.71875 5.80078,-4.49219 7.25,-8.02734c0.67969,-1.71875 1.06641,-3.63281 1.16016,-5.54297c0.01563,-0.21484 0.02344,-0.42969 0.03125,-0.64062c0,-0.60547 0,-1.64062 -0.05469,-2.57422c-0.03906,-0.35937 -0.09766,-0.72656 -0.16797,-1.08984c-0.07031,-0.30469 -0.15625,-0.60937 -0.25391,-0.91016c-0.29687,-0.57812 -0.72656,-1.07422 -1.34766,-1.37891c-0.48437,-0.19141 -0.86719,-0.38281 -1.35156,-0.57422c-2.99609,-1.05469 -8.06641,-1.33984 -11.16016,-1.625zM25.07813,28.60938c0.36719,0.58203 0.73828,1.17188 0.85156,1.96094c0.05859,0.40234 0.0625,1.08984 -0.10547,1.85547c0.09375,-0.12109 0.19141,-0.24609 0.29688,-0.37891c0.76953,-1.14453 1.83594,-1.91016 2.99219,-2.76953c-1.42578,-0.08984 -2.76953,-0.26953 -4.03516,-0.66797z"></path></g></g></svg>